<svg width="422" height="365" viewBox="0 0 422 365" fill="none" xmlns="http://www.w3.org/2000/svg">
<path fill-rule="evenodd" clip-rule="evenodd" d="M219.462 1.31757C241.181 3.77614 260.043 18.5813 281.857 19.7211C319.384 21.682 360.662 -10.5371 392.819 10.3757C420.673 28.491 425.066 75.1471 420.377 109.808C415.733 144.143 386.759 167.555 367.765 195.59C354.635 214.971 338.934 231.027 325.362 250.051C311.525 269.444 302.647 291.943 286.643 309.297C266.492 331.147 247.974 367.351 219.462 364.88C189.905 362.318 177.574 321.371 157.298 298.085C142.942 281.597 131.112 263.824 116.946 247.147C101.76 229.269 85.3278 213.899 70.3931 195.779C45.8244 165.968 -0.280825 145.099 0.00128872 105.252C0.254937 69.427 43.2626 51.1002 71.5512 32.215C95.3197 16.3473 122.951 10.5772 150.409 4.84152C173.318 0.0561162 196.254 -1.30953 219.462 1.31757Z" fill="#5E8932" fill-opacity="0.5"/>
</svg>
