<svg width="98" height="98" viewBox="0 0 98 98" fill="none" xmlns="http://www.w3.org/2000/svg">
<g opacity="0.1">
<path opacity="0.1" d="M97 94.727V96.9924H94.7346" stroke="#5E8932" stroke-miterlimit="10"/>
<path opacity="0.1" d="M90.3775 96.9924H5.44019" stroke="#5E8932" stroke-miterlimit="10" stroke-dasharray="5.77 5.77"/>
<path opacity="0.1" d="M3.2654 96.9924H1V94.727" stroke="#5E8932" stroke-miterlimit="10"/>
<path opacity="0.1" d="M1 90.37V5.44012" stroke="#5E8932" stroke-miterlimit="10" stroke-dasharray="5.77 5.77"/>
<path opacity="0.1" d="M1 3.2654V1H3.2654" stroke="#5E8932" stroke-miterlimit="10"/>
<path opacity="0.1" d="M7.6225 1H92.5522" stroke="#5E8932" stroke-miterlimit="10" stroke-dasharray="5.77 5.77"/>
<path opacity="0.1" d="M94.7346 1H97V3.2654" stroke="#5E8932" stroke-miterlimit="10"/>
<path opacity="0.1" d="M97 7.61493V92.5522" stroke="#5E8932" stroke-miterlimit="10" stroke-dasharray="5.77 5.77"/>
</g>
<path d="M36.7177 33.2592L39.7382 34.7695C40.2942 35.0123 40.8993 35.1217 41.505 35.0889C42.1108 35.0562 42.7005 34.8821 43.227 34.5807L46.0814 32.723C46.5726 32.3665 46.9723 31.8987 47.248 31.358C47.5236 30.8172 47.6673 30.2189 47.6671 29.6119L47.486 26.2062C47.4198 25.6042 47.2132 25.026 46.8827 24.5184C46.5521 24.0108 46.107 23.5879 45.583 23.2839L42.5624 21.7359C42.0076 21.4901 41.4026 21.3785 40.7965 21.41C40.1904 21.4415 39.6002 21.6152 39.0737 21.9171L36.2194 23.7747C35.7291 24.1321 35.3299 24.6001 35.0545 25.1407C34.7789 25.6812 34.6347 26.2792 34.6335 26.8859L34.8148 30.2915C34.8734 30.9018 35.0767 31.4893 35.4076 32.0054C35.7385 32.5215 36.1876 32.9513 36.7177 33.2592Z" fill="#5E8932"/>
<path d="M54.9391 37.6693L51.9185 36.1213C51.3639 35.8785 50.7601 35.7692 50.1555 35.8019C49.551 35.8347 48.9626 36.0088 48.4374 36.3101L45.5528 38.1677C45.0643 38.5268 44.6664 38.9951 44.3911 39.5353C44.1157 40.0755 43.9705 40.6726 43.967 41.2788L44.1483 44.6845C44.2144 45.2866 44.421 45.8648 44.7515 46.3724C45.0821 46.88 45.5272 47.3029 46.0511 47.6069L49.0717 49.1171C49.6253 49.3628 50.2291 49.4744 50.834 49.443C51.4389 49.4115 52.0277 49.2377 52.5528 48.9359L55.4148 47.0783C55.9035 46.7176 56.3013 46.2479 56.5766 45.7065C56.8519 45.1651 56.9971 44.5669 57.0006 43.9596L56.8193 40.5615C56.7501 39.9671 56.5443 39.3968 56.2182 38.895C55.892 38.3933 55.4542 37.9739 54.9391 37.6693Z" fill="#5E8932"/>
<path d="M64.2575 52.0319L61.2369 50.5217C60.682 50.2759 60.0771 50.1643 59.471 50.1958C58.8649 50.2272 58.2747 50.4009 57.7482 50.7029L54.8939 52.5605C54.4044 52.9187 54.0059 53.3869 53.7305 53.9272C53.4551 54.4676 53.3104 55.0652 53.308 55.6717L53.4894 59.0773C53.5616 59.6697 53.7696 60.2375 54.097 60.7364C54.4244 61.2354 54.8625 61.6522 55.3772 61.9544L58.3977 63.4646C58.9536 63.7074 59.5587 63.8168 60.1644 63.7841C60.7702 63.7513 61.3599 63.5772 61.8864 63.2759L64.7483 61.4182C65.2373 61.06 65.6349 60.5917 65.9091 60.0511C66.1833 59.5106 66.3263 58.9132 66.3266 58.3071L66.168 54.9619C66.1028 54.3575 65.8958 53.7771 65.5638 53.2679C65.2318 52.7588 64.7842 52.3353 64.2575 52.0319Z" fill="#5E8932"/>
<path d="M42.0037 43.5743L41.8602 40.9238C41.8637 40.3175 42.0089 39.7204 42.2843 39.1803C42.5596 38.6401 42.9574 38.1717 43.446 37.8127L49.0113 34.1956C49.5364 33.8943 50.1249 33.7202 50.7295 33.6875C51.334 33.6547 51.9378 33.7641 52.4925 34.0068L54.8636 35.215C55.4185 35.4607 56.0235 35.5724 56.6295 35.5409C57.2357 35.5094 57.8258 35.3357 58.3523 35.0338L61.2067 33.1686C61.6966 32.8108 62.0953 32.3428 62.3708 31.8023C62.6463 31.2618 62.7907 30.6641 62.7925 30.0575L62.6112 26.6594C62.5463 26.0559 62.3402 25.4762 62.0096 24.9673C61.679 24.4582 61.2332 24.0342 60.7083 23.7294L57.6878 22.1814C57.1319 21.9386 56.5268 21.8292 55.921 21.862C55.3152 21.8948 54.7255 22.0688 54.1991 22.3702L51.2843 24.1976C50.7953 24.5559 50.3977 25.0242 50.1235 25.5647C49.8493 26.1052 49.7063 26.7027 49.706 27.3088L49.842 29.9593C49.8417 30.5654 49.6986 31.1629 49.4244 31.7034C49.1503 32.2439 48.7526 32.7123 48.2637 33.0704L42.6984 36.6875C42.1719 36.9894 41.5818 37.1632 40.9757 37.1947C40.3696 37.2262 39.7646 37.1145 39.2097 36.8688L36.8461 35.6681C36.2912 35.4224 35.6862 35.3108 35.0801 35.3423C34.474 35.3737 33.8839 35.5474 33.3574 35.8493L30.503 37.7069C30.0127 38.0644 29.6136 38.5323 29.3381 39.0729C29.0625 39.6135 28.9184 40.2114 28.9172 40.8181L29.0985 44.2237C29.1628 44.8274 29.3687 45.4073 29.6993 45.9164C30.03 46.4256 30.4761 46.8494 31.0014 47.1537L34.0219 48.6639C34.5779 48.9068 35.1829 49.0162 35.7886 48.9834C36.3944 48.9506 36.9842 48.7766 37.5106 48.4751L40.365 46.6175C40.8556 46.2722 41.2589 45.8174 41.5434 45.2892C41.8277 44.7611 41.9853 44.174 42.0037 43.5743Z" fill="#5E8932"/>
<path d="M71.8995 41.0221C71.8322 40.4193 71.6251 39.8405 71.2948 39.3319C70.9644 38.8232 70.5198 38.3987 69.9965 38.0922L66.976 36.5819C66.4199 36.3397 65.8149 36.2305 65.2093 36.2633C64.6036 36.2961 64.0139 36.4698 63.4873 36.7707L60.6328 38.6283C60.1434 38.9866 59.745 39.4547 59.4695 39.995C59.1941 40.5354 59.0494 41.1329 59.0471 41.7395L59.1906 44.3975C59.1882 45.004 59.0436 45.6015 58.7681 46.1419C58.4927 46.6823 58.0942 47.1504 57.6047 47.5087L52.047 51.1182C51.5205 51.4196 50.9308 51.5936 50.325 51.6264C49.7193 51.6592 49.1142 51.5498 48.5582 51.307L46.1871 50.0988C45.6325 49.856 45.0287 49.7466 44.4241 49.7794C43.8196 49.8122 43.2312 49.9862 42.706 50.2876L39.8214 52.1376C39.3329 52.4967 38.9351 52.965 38.6597 53.5052C38.3843 54.0453 38.2391 54.6424 38.2357 55.2488L38.4168 58.6544C38.483 59.2565 38.6896 59.8347 39.0201 60.3423C39.3507 60.8499 39.7958 61.2728 40.3198 61.5768L43.3404 63.1248C43.8939 63.3705 44.4977 63.4821 45.1025 63.4506C45.7075 63.4191 46.2963 63.2453 46.8215 62.9435L49.6834 61.0859C50.1715 60.7264 50.5691 60.258 50.8443 59.718C51.1197 59.1778 51.2651 58.581 51.2692 57.9748L51.1258 55.3167C51.1274 54.7101 51.2719 54.1124 51.5474 53.5719C51.8228 53.0314 52.2216 52.5634 52.7115 52.2055L58.2692 48.5885C58.7957 48.2866 59.3859 48.1129 59.992 48.0814C60.5981 48.0499 61.203 48.1615 61.758 48.4072L64.1215 49.6079C64.6765 49.8537 65.2815 49.9653 65.8876 49.9338C66.4936 49.9023 67.0838 49.7286 67.6102 49.4267L70.4723 47.5691C70.9607 47.2104 71.358 46.742 71.6321 46.2016C71.9063 45.6612 72.0496 45.0639 72.0504 44.4579L71.8995 41.0221Z" fill="#5E8932"/>
</svg>
