<svg width="445" height="399" viewBox="0 0 445 399" fill="none" xmlns="http://www.w3.org/2000/svg">
<path fill-rule="evenodd" clip-rule="evenodd" d="M226.05 7.49303C262.908 5.57353 304.144 -8.84894 335.426 8.31178C367.354 25.8264 366.325 67.2791 386.148 95.3192C403.456 119.801 444.604 134.516 444.997 163.3C445.415 193.988 407.593 213.863 388.111 239.384C374.555 257.142 366.511 278.521 347.131 291.501C328.962 303.67 298.807 295.739 282.718 309.974C255.161 334.354 264.5 391.995 226.05 398.626C191.993 404.5 191.056 339.324 157.494 331.571C111.954 321.051 41.1473 387.673 19.7377 350.968C-4.4158 309.559 104.302 278.583 99.5766 232.277C95.7461 194.74 8.14425 199.053 0.451583 161.972C-5.64066 132.606 51.5682 123.442 72.0458 99.5715C93.2716 74.8287 93.5752 36.8417 122.769 19.3866C151.802 2.02806 190.947 9.32112 226.05 7.49303Z" fill="#5E8932" fill-opacity="0.5"/>
</svg>
